<svg width="103" height="22" viewBox="0 0 103 22" fill="none" xmlns="http://www.w3.org/2000/svg">
<g clip-path="url(#clip0)">
<path d="M9.30443 5.37948H15.6873L14.6989 9.00327C14.5479 9.50832 14.2654 9.91404 13.8516 10.2202C13.4373 10.5272 12.9571 10.6802 12.4113 10.6802H9.44567C8.7678 10.6802 8.16972 10.8693 7.65224 11.2481C7.13397 11.6267 6.77189 12.1403 6.56482 12.7896C6.43296 13.2763 6.41879 13.7361 6.52253 14.1688C6.62586 14.6014 6.8094 14.9848 7.07312 15.3179C7.33665 15.6518 7.67559 15.9177 8.09013 16.116C8.50387 16.3147 8.95592 16.4132 9.44567 16.4132H11.2531C11.5922 16.4132 11.8697 16.5443 12.0863 16.8054C12.3026 17.0671 12.364 17.3597 12.2699 17.6842L11.1403 21.6868H9.16339C7.80765 21.6868 6.56003 21.4028 5.42094 20.8349C4.28165 20.267 3.33546 19.5146 2.58258 18.5767C1.8293 17.6395 1.31601 16.5714 1.04331 15.3724C0.770205 14.1733 0.80332 12.9428 1.14226 11.6806L1.25517 11.275C1.49386 10.4216 1.88046 9.61252 2.39885 8.88159C2.91673 8.15152 3.52857 7.52957 4.23476 7.01573C4.94076 6.5019 5.72696 6.10076 6.59315 5.81232C7.45894 5.52408 8.36263 5.37948 9.30443 5.37948ZM12.524 21.6866L18.0878 1.72894C18.2382 1.22428 18.5207 0.818746 18.9353 0.511972C19.349 0.205389 19.829 0.052002 20.3756 0.052002H26.2785C27.6341 0.052002 28.8811 0.336045 30.0206 0.90394C31.1595 1.47183 32.1057 2.22483 32.8589 3.16196C33.6118 4.09966 34.1299 5.16783 34.4124 6.36666C34.6948 7.56586 34.6567 8.7964 34.2993 10.0581L34.1865 10.4638C33.9416 11.3291 33.5651 12.127 33.0568 12.8572C32.5481 13.5873 31.9411 14.214 31.2351 14.7367C30.5289 15.2597 29.7425 15.6654 28.8767 15.9534C28.0105 16.2423 27.1066 16.3863 26.1654 16.3863H21.0535L22.0701 12.7354C22.2207 12.2487 22.503 11.8523 22.9175 11.5453C23.3314 11.2391 23.8114 11.0857 24.3578 11.0857H25.996C26.6737 11.0857 27.281 10.8875 27.8174 10.4907C28.3542 10.0944 28.7071 9.58052 28.8767 8.94921C29.0084 8.49879 29.0223 8.05678 28.9192 7.62412C28.8154 7.19147 28.6319 6.80848 28.3682 6.47477C28.1045 6.14145 27.7655 5.87116 27.3516 5.66352C26.9372 5.45646 26.4854 5.35254 25.996 5.35254H22.8325L18.709 20.0372C18.558 20.5239 18.2755 20.9207 17.8616 21.227C17.4475 21.5338 16.9765 21.6868 16.4494 21.6868H12.524V21.6866ZM47.7428 11.0317L47.8275 10.7341C47.865 10.5901 47.8417 10.4686 47.7569 10.3692C47.6721 10.2703 47.5544 10.2202 47.4038 10.2202H38.2248C37.8295 10.2202 37.4716 10.1393 37.1516 9.97689C36.8314 9.81452 36.5679 9.60287 36.361 9.34137C36.1535 9.08044 36.0123 8.77825 35.9373 8.43538C35.8617 8.09326 35.871 7.7416 35.9652 7.38077L36.5302 5.32542H48.9573C49.7293 5.32542 50.4353 5.48778 51.0755 5.81232C51.7154 6.13667 52.2477 6.56054 52.6714 7.08335C53.0951 7.60636 53.3866 8.20558 53.5467 8.88159C53.7065 9.55779 53.6924 10.2567 53.5045 10.9776L51.2731 18.9283C51.0473 19.7398 50.5907 20.398 49.9034 20.9025C49.216 21.4076 48.43 21.6599 47.5451 21.6599L38.3661 21.6328C37.5561 21.6328 36.8126 21.4662 36.135 21.1323C35.4569 20.7992 34.9015 20.3575 34.4684 19.8074C34.0353 19.2577 33.7343 18.6265 33.5647 17.9144C33.3954 17.2023 33.4143 16.4766 33.6212 15.7372L33.7343 15.3315C33.8658 14.8272 34.0874 14.3581 34.3978 13.9254C34.7086 13.4926 35.0709 13.1231 35.4852 12.8166C35.9034 12.5081 36.3706 12.2661 36.8691 12.0999C37.3776 11.9287 37.9144 11.8429 38.4792 11.8429H46.1895L45.6246 13.8713C45.4737 14.3581 45.1913 14.7548 44.7771 15.0612C44.363 15.368 43.8922 15.5208 43.3651 15.5208H39.9193C39.5991 15.5208 39.3921 15.6744 39.2981 15.9808C39.2416 16.1794 39.2792 16.3552 39.411 16.508C39.5427 16.6614 39.712 16.7378 39.9193 16.7378H45.4831C45.6904 16.7378 45.8691 16.6837 46.02 16.5756C46.1704 16.4673 46.2643 16.3234 46.3024 16.1429L46.3589 15.9265L47.7428 11.0317ZM64.1804 5.37948C65.5543 5.37948 66.8113 5.66352 67.9506 6.23142C69.0897 6.79931 70.0357 7.5523 70.7894 8.48962C71.542 9.42714 72.0553 10.5001 72.3282 11.7077C72.6011 12.9159 72.5588 14.151 72.2014 15.4127L70.7892 20.497C70.6946 20.8576 70.4925 21.1459 70.1821 21.3623C69.8713 21.5787 69.5274 21.6868 69.1507 21.6868H66.1007C65.743 21.6868 65.4605 21.5564 65.2535 21.2947C65.046 21.0335 64.9895 20.7401 65.0839 20.4158L66.7786 14.2769C66.9102 13.8265 66.9242 13.3844 66.8209 12.9518C66.7171 12.5189 66.5336 12.1361 66.2703 11.8024C66.0064 11.4689 65.6676 11.1986 65.2535 10.991C64.8389 10.7839 64.3871 10.6802 63.8979 10.6802H60.7346L57.9948 20.497C57.9006 20.8576 57.6984 21.1459 57.3877 21.3623C57.0769 21.5787 56.7238 21.6868 56.3284 21.6868H53.3068C52.9678 21.6868 52.6899 21.5564 52.4737 21.2947C52.2574 21.0335 52.196 20.7401 52.29 20.4158L56.4701 5.37948H64.1804ZM80.8152 10.5312C80.5893 10.7029 80.429 10.9236 80.335 11.194L79.0642 15.7913C78.9888 16.044 79.0361 16.2782 79.2053 16.4944C79.3748 16.7108 79.6009 16.8191 79.8834 16.8191H91.5759L90.6722 20.0372C90.5212 20.5239 90.2387 20.9207 89.8248 21.227C89.4104 21.5338 88.9394 21.6868 88.4126 21.6868H77.7652C76.9927 21.6868 76.2867 21.5292 75.6468 21.2135C75.0064 20.8983 74.4745 20.4746 74.0508 19.9425C73.6273 19.411 73.3351 18.8067 73.1757 18.1307C73.0157 17.4545 73.039 16.7649 73.2461 16.0617L74.9689 9.92283C75.157 9.25618 75.4489 8.64301 75.8445 8.0839C76.2398 7.52537 76.7061 7.04744 77.2425 6.6507C77.7791 6.25415 78.3814 5.94336 79.0499 5.71758C79.7168 5.49249 80.4189 5.37815 81.126 5.37948H88.6667C89.4388 5.37948 90.145 5.54184 90.7849 5.86638C91.4249 6.19092 91.9573 6.61479 92.3809 7.13741C92.8046 7.66042 93.0912 8.26441 93.2421 8.94921C93.3927 9.63458 93.3737 10.3284 93.1856 11.0317L92.6773 12.8706C92.4515 13.6821 91.9947 14.3357 91.3076 14.8314C90.62 15.3273 89.8433 15.575 88.9775 15.575H80.4481L81.0131 13.5737C81.1445 13.087 81.4174 12.6907 81.832 12.3837C82.2459 12.0775 82.7259 11.9241 83.2723 11.9241H86.7181C87.0381 11.9241 87.2448 11.7711 87.3393 11.4643L87.4522 11.0586C87.5089 10.8605 87.4708 10.68 87.3393 10.5178C87.2073 10.3555 87.0381 10.2745 86.831 10.2745H81.5778C81.2955 10.2745 81.0412 10.3603 80.8152 10.5314V10.5312ZM91.5472 21.6866L97.2239 1.26878C97.3179 0.908524 97.5205 0.615503 97.8314 0.390103C98.1418 0.164702 98.4949 0.052002 98.8904 0.052002H101.912C102.27 0.052002 102.557 0.18304 102.774 0.444161C102.99 0.705855 103.051 0.998493 102.957 1.32303L98.7209 16.3863C98.5134 17.18 98.1793 17.9007 97.7182 18.5497C97.2566 19.1988 96.7108 19.7532 96.08 20.2129C95.449 20.6727 94.7478 21.0335 93.976 21.2947C93.2038 21.5564 92.3944 21.6868 91.5472 21.6868V21.6866Z" fill="#FF6C2C"/>
</g>
<defs>
<clipPath id="clip0">
<rect width="102.139" height="21.79" fill="white" transform="translate(0.860596 0.0444336)"/>
</clipPath>
</defs>
</svg>
