<svg width="109" height="14" viewBox="0 0 109 14" fill="none" xmlns="http://www.w3.org/2000/svg">
<g clip-path="url(#clip0)">
<path d="M93.1812 5.81713V13.9875H95.9086V8.5406H105.883V13.9875H108.61V5.81713H93.1812ZM95.5969 3.16829H106.117C107.597 2.90713 108.649 1.63867 108.961 0.444824H92.7526C93.0643 1.63867 94.1553 2.86983 95.5969 3.16829ZM84.8821 13.9875C86.2458 13.4279 86.9861 12.4579 87.2978 11.3387H75.0246V0.482132H72.2582V13.9875H84.8821ZM51.8028 3.13098H61.5435C63.0241 2.72059 64.2319 1.63867 64.5436 0.482132H49.1144V8.46598H61.7383V11.2641H51.8418C50.2833 11.6744 48.9586 12.6818 48.2962 13.9875H64.4657V5.81713H51.8418L51.8028 3.13098ZM27.8018 3.16829H38.3217C39.8023 2.90713 40.8933 1.63867 41.166 0.444824H24.9186C25.2303 1.63867 26.3212 2.86983 27.8018 3.16829ZM27.8018 8.50329H38.3217C39.8023 8.24214 40.8933 6.97367 41.166 5.77983H24.9186C25.2303 6.97367 26.3212 8.20483 27.8018 8.50329ZM27.8018 13.9875H38.3217C39.8023 13.7264 40.8933 12.4579 41.166 11.2641H24.9186C25.2303 12.4579 26.3212 13.7264 27.8018 13.9875Z" fill="black"/>
<path d="M0.411011 0.482132C0.722712 1.67598 1.81367 2.86983 3.25529 3.16829H7.69703L7.93081 3.2429V13.9502H10.6972V3.2429L10.9309 3.16829H15.3727C16.8533 2.79521 17.9053 1.67598 18.217 0.482132V0.444824L0.411011 0.482132Z" fill="black"/>
</g>
<defs>
<clipPath id="clip0">
<rect width="108.589" height="13.5585" fill="white" transform="translate(0.411011 0.437012)"/>
</clipPath>
</defs>
</svg>
