<svg width="75" height="18" viewBox="0 0 75 18" fill="none" xmlns="http://www.w3.org/2000/svg">
<g clip-path="url(#clip0)">
<path d="M32.8778 2.39112C31.6211 1.18784 29.9157 0.500244 28.1204 0.500244H18.2915V17.69H25.0237V6.94641H27.1779C27.7614 6.94641 28.3448 7.16128 28.7488 7.59103L31.0826 9.8257C31.4865 10.2125 31.7558 10.7711 31.7558 11.3298V17.69H38.4879V10.4273C38.4879 8.70836 37.7698 7.07533 36.5131 5.87205L32.8778 2.39112V2.39112ZM67.6604 0.500244V6.86046C67.6604 7.41913 67.436 7.9778 66.9872 8.36457L64.6534 10.5992C64.2495 10.986 63.666 11.2439 63.0826 11.2439H59.8512C60.5244 10.2125 60.9283 9.00918 60.9283 7.76292V0.500244H54.1962V6.86046C54.1962 7.41913 53.9718 7.9778 53.523 8.36457L51.1892 10.5992C50.7852 10.986 50.2018 11.2439 49.6183 11.2439H47.4641V0.500244H40.7319V17.69H50.5608C52.3561 17.69 54.0615 17.0024 55.3182 15.7991L57.5622 13.6504V17.69H64.0251C65.8203 17.69 67.5258 17.0024 68.7824 15.7991L72.4178 12.3182C73.6744 11.1149 74.3925 9.4819 74.3925 7.76292V0.500244H67.6604ZM0.339233 6.94641H4.82731V17.69H11.5594V6.94641H16.0475V0.500244H0.339233V6.94641Z" fill="#E6305B"/>
</g>
<defs>
<clipPath id="clip0">
<rect width="74.0607" height="17.1898" fill="white" transform="translate(0.335083 0.500244)"/>
</clipPath>
</defs>
</svg>
