<svg width="87" height="30" viewBox="0 0 87 30" fill="none" xmlns="http://www.w3.org/2000/svg">
<g clip-path="url(#clip0)">
<path d="M50.2608 4.15017C50.4994 2.53034 51.8485 1.09659 53.5537 0.823801C55.2277 0.493912 57.0696 1.26809 57.8931 2.71431C58.5932 3.81394 58.5115 5.1483 58.4982 6.38749C60.6979 6.09778 62.9967 6.64337 64.7283 7.99253C64.746 6.77871 64.6619 5.56066 64.7769 4.34916C64.9403 2.6551 66.3295 1.13487 68.0921 0.834585C69.8299 0.470651 71.767 1.27211 72.604 2.79065C73.2908 3.91143 73.1716 5.2479 73.1671 6.49132C74.3842 6.37269 75.6828 6.60319 76.6302 7.38562C77.5889 8.10883 77.9882 9.25287 78.3818 10.3123C78.7572 9.40935 79.062 8.43238 79.782 7.71572C80.992 6.4596 83.0858 6.09377 84.6759 6.87196C85.9505 7.45138 86.9418 8.67578 86.9902 10.0545C87.0805 11.1563 86.562 12.1713 86.1397 13.1631C84.2338 17.6737 82.3323 22.1885 80.4264 26.6991C80.0487 27.5978 79.4282 28.4289 78.558 28.9447C77.1689 29.7929 75.2806 29.6448 73.9291 28.799C72.8049 28.0988 72.1071 26.7985 72.2462 25.5128C72.3789 24.3307 72.615 23.1615 72.8535 21.9961C72.2023 23.3431 70.822 24.388 69.2385 24.4324C67.5775 24.591 65.9856 23.6624 65.1945 22.2902C62.9662 24.3734 59.4214 25.0774 56.5727 23.7874C55.4309 24.3013 54.0835 24.4937 52.8847 24.0433C52.125 23.7935 51.5331 23.2564 50.9963 22.7068C48.207 24.3734 44.6246 24.9716 41.4846 23.9166C40.0336 23.4431 38.7527 22.5759 37.7302 21.4932C35.7843 23.5825 32.741 24.443 29.8923 24.4392C26.7317 24.4368 23.6399 22.7855 22.0721 20.14C21.6083 21.5484 20.9634 23.0477 19.5699 23.8299C17.8936 24.7984 15.5262 24.6274 14.1017 23.3076C13.6534 22.9077 13.3464 22.3941 13.0372 21.8931C12.6178 22.6861 12.0412 23.4324 11.2108 23.8661C9.51027 24.7879 7.15802 24.5849 5.75365 23.2463C5.0359 22.5888 4.59862 21.7131 4.27618 20.825C3.22495 17.9702 2.15384 15.1217 1.10481 12.2669C0.654506 11.0489 0.380655 9.62992 1.04099 8.43301C2.1121 6.39447 5.12424 5.71566 7.09663 6.94217C8.01292 7.46872 8.59839 8.37803 8.92502 9.33386C9.25409 8.49243 9.71345 7.65503 10.4933 7.1179C12.1096 5.95906 14.6187 6.08171 16.0385 7.48162C16.5842 7.99337 16.9042 8.66795 17.1715 9.34042C17.5359 8.19849 18.3444 7.15173 19.5127 6.67593C21.2839 5.90408 23.5122 6.44755 24.7092 7.9109C26.6416 6.58479 29.1284 6.04365 31.4672 6.47716C33.786 6.87048 35.8267 8.25348 37.1871 10.0679C38.4967 8.29556 40.451 6.92335 42.6995 6.50655C45.3231 5.96329 48.1478 6.67593 50.1906 8.33151C50.2187 6.93731 50.104 5.5374 50.2608 4.15017ZM52.5287 4.96644C52.5177 9.91265 52.5311 14.8586 52.5223 19.8027C52.5245 20.3528 52.5623 20.9468 52.9311 21.3972C53.4786 22.1373 54.6515 22.2623 55.4289 21.795C55.8662 21.5473 56.0298 21.061 56.2372 20.6486C57.8825 22.795 61.3962 22.5835 63.3154 20.8962C66.1952 18.4726 66.4119 14.0341 64.4242 11.0332C63.481 9.5614 61.7564 8.5675 59.9432 8.54424C58.574 8.47002 57.2467 8.96929 56.1577 9.73882C56.1424 8.03249 56.2105 6.32152 56.129 4.61709C56.0978 3.59782 55.0382 2.76676 53.9868 3.01206C53.0303 3.15205 52.4781 4.09731 52.5287 4.96644ZM68.176 3.13513C67.3412 3.46692 67.0099 4.37856 67.0607 5.18636C67.0693 10.2002 67.0494 15.2141 67.0693 20.2257C67.0095 21.1796 67.7319 22.1773 68.7833 22.2116C69.8588 22.3532 70.8262 21.4355 70.8107 20.4225C70.8595 15.489 70.8063 10.5534 70.8372 5.61987C70.8308 4.94952 70.8703 4.20093 70.4021 3.649C69.9052 3.00402 68.9244 2.80736 68.176 3.13513ZM3.02817 9.68003C2.86254 10.5659 3.28657 11.4202 3.56903 12.2451C4.60039 14.9919 5.60304 17.7494 6.64102 20.4944C6.95241 21.3596 7.69225 22.1817 8.71699 22.1991C9.73951 22.3302 10.7179 21.662 11.0005 20.7296C11.7073 18.7251 12.3477 16.6969 13.0478 14.6899C13.6951 16.5741 14.3223 18.4648 14.9561 20.3553C15.1704 20.9853 15.4796 21.6622 16.1288 21.9813C16.9241 22.3575 17.9884 22.3046 18.6553 21.7106C19.1388 21.2855 19.3883 20.6871 19.6092 20.1119C20.6894 17.1765 21.7956 14.2498 22.8755 11.3147C23.1295 10.6634 23.251 9.87458 22.8051 9.2719C22.0365 8.18496 19.9826 8.34779 19.554 9.65043C18.7324 12.0717 18.0127 14.5271 17.213 16.9547C16.3895 14.5482 15.6582 12.1123 14.8102 9.71408C14.459 8.56793 12.8601 8.21076 11.906 8.879C11.4621 9.19387 11.27 9.7164 11.1002 10.1983C10.3625 12.4505 9.63593 14.7049 8.88284 16.9524C8.1165 14.5988 7.39212 12.2324 6.63241 9.87881C6.30997 8.21668 3.54496 8.10672 3.02817 9.68003ZM25.2278 10.4455C22.8583 12.7717 22.5158 16.6732 24.3532 19.3845C25.2366 20.704 26.6854 21.6408 28.2688 22.0047C30.294 22.4744 32.4694 22.1335 34.3156 21.2456C35.0091 20.8901 35.7269 20.4526 36.0868 19.7569C36.6235 18.7653 35.4795 17.4178 34.3554 17.754C33.4808 18.0438 32.741 18.6107 31.8642 18.9002C30.559 19.3508 28.9623 19.1899 27.8914 18.3102C27.3545 17.8873 27.1295 17.2362 26.9393 16.6208C29.6933 16.587 32.4495 16.6546 35.2012 16.591C35.9144 16.6039 36.4998 16.0139 36.5153 15.3435C36.6942 12.1166 33.9777 8.94455 30.5964 8.59986C28.6332 8.36682 26.5816 9.06255 25.2278 10.4455ZM40.5303 9.88304C38.2136 11.6338 37.328 14.7764 38.1164 17.462C38.589 19.1982 39.839 20.7482 41.5418 21.5243C43.8516 22.6091 46.6522 22.3403 48.9134 21.2745C49.6513 20.9 50.4307 20.4371 50.7796 19.6759C51.2213 18.6796 50.0883 17.4108 48.9905 17.7579C48.2111 18.0222 47.5398 18.5064 46.7774 18.8023C45.4548 19.3587 43.7871 19.2506 42.6365 18.3817C42.0513 17.9564 41.7949 17.2759 41.5897 16.6263C44.3282 16.5819 47.0691 16.6517 49.8074 16.5948C50.5362 16.6223 51.1612 16.0386 51.1676 15.3429C51.3379 12.3401 49.01 9.39223 45.9514 8.71151C44.0813 8.30127 42.0254 8.71786 40.5303 9.88304ZM72.233 9.72867C72.0033 10.2848 72.2129 10.8854 72.4273 11.4119C73.7659 14.567 75.0863 17.7285 76.4178 20.8857C75.9032 22.1162 75.3734 23.3406 74.8566 24.5694C74.651 25.0981 74.4302 25.6965 74.6557 26.2527C74.9936 27.0857 76.0777 27.4327 76.9328 27.2276C77.7104 27.0076 78.1057 26.259 78.3818 25.5908C80.4048 20.763 82.4564 15.9437 84.4816 11.1161C84.8458 10.3675 84.6561 9.3715 83.85 8.96527C82.9092 8.35858 81.4893 8.7961 81.107 9.82193C80.1464 12.0719 79.2475 14.3471 78.3067 16.6058C77.4874 14.4763 76.6656 12.3466 75.8573 10.2131C75.6453 9.64641 75.3076 9.05007 74.6826 8.83226C73.7877 8.44718 72.6194 8.86377 72.233 9.72867ZM28.0347 12.279C27.5091 12.7778 27.2993 13.4757 27.1204 14.142C29.1169 14.1504 31.1134 14.1504 33.112 14.142C32.9241 13.4801 32.7233 12.7823 32.2043 12.2811C31.1465 11.1582 29.0946 11.1603 28.0347 12.279ZM42.582 12.2599C42.0475 12.7632 41.8311 13.4674 41.6478 14.1401C43.6442 14.1528 45.6431 14.1507 47.6396 14.1422C47.4539 13.4951 47.2619 12.8121 46.7626 12.313C45.7224 11.1666 43.6553 11.1455 42.582 12.2599ZM58.4828 11.856C57.7937 11.9977 57.2019 12.4437 56.8352 13.0127C55.9231 14.4994 56.0095 16.5149 57.0232 17.9357C57.8425 19.1239 59.7926 19.3269 60.848 18.3163C62.3125 16.9018 62.3741 14.4655 61.2193 12.8563C60.634 12.0189 59.5053 11.6044 58.4828 11.856Z" fill="#1F8EED"/>
</g>
<defs>
<clipPath id="clip0">
<rect width="86.3536" height="28.7746" fill="white" transform="translate(0.646362 0.73999)"/>
</clipPath>
</defs>
</svg>
